<svg id="レイヤー_1" data-name="レイヤー 1" xmlns="http://www.w3.org/2000/svg" viewBox="0 0 158.38 82.6"><defs><style>.cls-1{fill:#f60;}</style></defs><path class="cls-1" d="M29,45.22a9.65,9.65,0,0,0-.4,1.35,2.51,2.51,0,0,1-.25.65c-.2.35-.4.2-.7.5s-.4.4-.5.55-.15.6-.55.7c-.15.05-.4,0-.55.1a5.82,5.82,0,0,1-1.6.35,4.91,4.91,0,0,1-1.2.3c-.25.05-.55.2-.9.3-.3,1-1.05,1.75-1.45,2.8-1.05,1.8-2,3.5-2.7,5a6.42,6.42,0,0,0-.8,1.3c-.25.5-.35.55-.4.7s-.25.6-.4.9a4.26,4.26,0,0,0-.6,1.15c-.2.35-.4.65-.6,1.05a16.67,16.67,0,0,0-1.45,3.85,6.19,6.19,0,0,1-.5,1.45c-1.25,3.2-2.6,6.55-3.75,9.9,1,0,1.5-.5,2.55-.5a1.2,1.2,0,0,1,.1,1.45,5.38,5.38,0,0,0-.55,1.15,8.11,8.11,0,0,1-.6.8,3.14,3.14,0,0,1-1.5.55c-.75.15-1.15.4-1.75.5-.35.05-.7.15-1,.2a1.61,1.61,0,0,0-.7,0,11.13,11.13,0,0,0-2.5.35,7,7,0,0,1-1.55.4c-.2,0-.4-.15-.65-.15a1.68,1.68,0,0,1-.4-.85,5.51,5.51,0,0,0,.1-.9c0-.8.7-1.15,1-1.6,1-.1,1.6-.6,2.65-.7.9-2.65,2.1-5.55,3.1-8.2.2-.5.45-1,.65-1.5.35-.85.65-1.7,1-2.5a4.43,4.43,0,0,0,.4-.85c.1-.3.15-.55.25-.8a10.37,10.37,0,0,1,1-1.6c.45-.6.95-1.25,1.4-1.9.45-1.3,1.05-2.5,1.55-3.7a12.47,12.47,0,0,1,1-2.7c.4-.7.6-1.55,1-2.3a8.63,8.63,0,0,0,.5-1.2,9.07,9.07,0,0,0,.6-1.4,2.1,2.1,0,0,1-.75.2,6.54,6.54,0,0,1-.75.25,6.53,6.53,0,0,1-1.4,0,1,1,0,0,1-.8-.85c-.05-.5.35-.35.45-.8,0-1.35.5-2.2,1.2-2.35.35-.1.6-.05.8-.25a13.49,13.49,0,0,1,2-.3,16.75,16.75,0,0,1,2-.25,5.35,5.35,0,0,1,2.05-.35c.4,0,.8.15,1.25.15a6.09,6.09,0,0,0,1.35,0c.4-.05.75-.35,1.15-.25a8.42,8.42,0,0,1,2.05-.3c.55.05.5-.1.65,0Z" transform="translate(-1.19 -0.53)"/><path class="cls-1" d="M22.19,78.72a6.33,6.33,0,0,0-.75,1.55c-.05.45.1,1.15,0,1.55-.05.2-.4.4-.2.75a3,3,0,0,1-2.75-.15,1,1,0,0,1-.8-.3c-.25-.15-.15-.5-.25-.75-.25-.85-.5-1.2-.45-1.6.1-.85.75-1.35,1.05-2a11.67,11.67,0,0,1,1.2-2.25,2.69,2.69,0,0,1,.35-.65c.15-.3.25-.55.4-.8s.35-.7.55-1,.35-.65.55-1c.05-.2.1-.45.3-.55,0-.35.2-.4.2-.85a9.22,9.22,0,0,1,.85-1.25c.6-1,1-1.65,1.35-2.3a2.21,2.21,0,0,1,.3-.8c.1-.2.15-.5.35-.65A25.36,25.36,0,0,1,25.54,63a5.47,5.47,0,0,1,.4-.7c.3-.9.7-1.3.8-1.85a9.05,9.05,0,0,0,1-2.1c.2-.2.25-.55.5-.75a12,12,0,0,1,.55-1.15,4.57,4.57,0,0,0,.45-.85c.45-.8,1-1.55,1.4-2.35s.55-1,.6-1.35a6.37,6.37,0,0,1-2.9.65,2.8,2.8,0,0,0-1.05.1,3.89,3.89,0,0,0-.8.1c-.95.35-1.35.65-1.8.4a3.4,3.4,0,0,1,.4-1.55,21.33,21.33,0,0,1,5.45-3,10.81,10.81,0,0,0,1.8-.6A10.66,10.66,0,0,1,34.19,45c.55-.3.35-.2.65-.2s.3.3.45.6.25.6.55.65.4-.1.65-.15a8.32,8.32,0,0,1,1.3-.2,8.71,8.71,0,0,1,1.1-.25c.45,0,.75-.25,1.3-.3a9.71,9.71,0,0,1,2.65.25c.25.1.6.3.9.45a7.35,7.35,0,0,1,1.25.6,6.34,6.34,0,0,1,.8,1c.25.05.45.3.65.45a6.73,6.73,0,0,1,1,2.1,10.8,10.8,0,0,1-.4,3.35c-.05.3-.15.65-.2.9a2.83,2.83,0,0,0,0,.65,10.1,10.1,0,0,1-.5,2.2c-.5,1.85-.9,3.75-2.25,4.75a7.41,7.41,0,0,1-1.2,1.3,3.82,3.82,0,0,1-1.65,1.25,24.85,24.85,0,0,1-2.95,1.9,19.75,19.75,0,0,1-2.45,1.45,7.62,7.62,0,0,1-1.65,1A33.93,33.93,0,0,1,30,70.62a7.33,7.33,0,0,1-3.1.15,8.3,8.3,0,0,0-.8-.3c-.3.1-.45,1-.6,1.35-.4.9-1,1.75-1.45,2.7-.35.8-.75,1.65-1.15,2.45C22.59,77.52,22.49,78.17,22.19,78.72Zm9.45-12.55a1.64,1.64,0,0,1,.65,0A3.32,3.32,0,0,0,33,66c.8-.25,1.5-.8,2.2-1a6.85,6.85,0,0,1,1.15-.85,3.62,3.62,0,0,1,1.1-.85c.25-.35.35-.4.35-.45A7.39,7.39,0,0,0,39.29,61,10,10,0,0,0,40.54,59a12.77,12.77,0,0,0,1.05-1.4c.1-.15.1-.35.2-.55a5.1,5.1,0,0,1,.4-.75,2.27,2.27,0,0,1,.3-.7c.15-.25.25-.45.4-.7s.3-.5.45-.75a5.87,5.87,0,0,0,.25-.55,4.65,4.65,0,0,1,.25-.5c.2-.5-.05-1.15-.05-1.55-.25-.85-.25-1.55-.55-1.85-.15-.15-.35-.15-.5-.25-.5-.2-.75-.1-1.05-.25-.45.2-1.15,0-1.8.05-.4,0-.8.3-1.15.15a1.91,1.91,0,0,1-.65.2c-.3.05-.6.05-.85.1a22.5,22.5,0,0,0-2.4.8c0,.5-.2.85-.2,1.3-.4,1.1-1,2.1-1.3,3.2-.75,1.3-1.3,2.75-2,4.1a9.76,9.76,0,0,0-1.2,2.75c-.25.7-.4,1.35-.65,2a4.91,4.91,0,0,1-.4.9,7.34,7.34,0,0,1-.3.7,5.07,5.07,0,0,0-.5,1.35,4.15,4.15,0,0,1,1.3-.3C30.14,66.07,31,66.32,31.64,66.17Z" transform="translate(-1.19 -0.53)"/><path class="cls-1" d="M93.74,46.47a4.71,4.71,0,0,0,.05,1.45,6.89,6.89,0,0,0-.7,1.2,22.8,22.8,0,0,1-2.25,3.7,7.87,7.87,0,0,0-1.5,2.7c-1.25,2.15-2.5,4.35-3.6,6.65a11.28,11.28,0,0,1,2.7.75c.2.4.5.35.4.55,0,.75-.2,1.25-.7,1a.7.7,0,0,1-.55,0,25,25,0,0,1-3,.5l-1.2,2.4A72.59,72.59,0,0,0,78.54,78a6.69,6.69,0,0,1-.5,1.6,3.32,3.32,0,0,1-.3,1,7,7,0,0,1-.3,1c-.2.45-.65.65-.8,1.1-.4-.4-.6.2-.75.5-.75.1-1-.5-1-1-.25-.3-.6-.15-1-.4a23.29,23.29,0,0,0-1.45-4c-.15-.45-.25-.9-.4-1.35a8.16,8.16,0,0,1-.45-1c-.1-.2-.1-.4-.2-.6-.35-.7-.85-1.45-1.2-2.1s-.55-1-.85-1.2c-.3-.6-.3-.75-.4-.9a9.23,9.23,0,0,0-.8-.9,7.23,7.23,0,0,0-1.1-.45c-.35-.1-.7-.3-1.1-.45-.6,1.15-.85,2.6-1.65,3.6-.35,1-.9,1.75-1.3,2.7a8.46,8.46,0,0,0-.65,1.55,8.81,8.81,0,0,1-.7,1.15,26.48,26.48,0,0,1-2.85,3c-.6.55-1.15.8-1.65.45-.2-.2-.35.1-.5.25-.45,0-.55-.2-.8-.45a7,7,0,0,1,.75-1.5c.35-.1.3-.65.55-.85a5.12,5.12,0,0,1,1-2.25,9.47,9.47,0,0,1,.45-1c.2-.35.55-.6.7-.9a21,21,0,0,1,1.35-3,31.8,31.8,0,0,1,1.7-3.75c-.3-.15-.15-.75-.45-1a2.13,2.13,0,0,0-.75-1.6.83.83,0,0,0,.25-.6,2.88,2.88,0,0,1,.7-.4,1.84,1.84,0,0,1,.7-.3,7.24,7.24,0,0,0,1.5-.2,21.72,21.72,0,0,1,1.15-2.15c0-.2.25-.4.2-.55.5-.65.8-1.55,1.35-2.2.45-1,1.2-1.85,1.65-3a11.3,11.3,0,0,0,1.35-3c.1-.25.1-.5.2-.75s.4-.75.6-1.15a3.87,3.87,0,0,0,.6-1.3c-.25-.3-.7,0-1.15.25s-.95.55-1.4.8a21.13,21.13,0,0,0-3.75,2.45c-.3.05-.65.25-1,.3-.35-.3-.4-.35-.45-.45.2-.2.8-.35.8-.65,0-1.2.9-1.8,1.65-2.45s1.65-.9,2.3-1.35,1.65-.8,2.45-1.2a4.23,4.23,0,0,0,.95-.7c.75-.45,1.65-1,2.6-1.55a1.4,1.4,0,0,0,.5-.25l1.25-.5a3.34,3.34,0,0,1,1.55-.5c.55,0,1.15.55.7,1,.45.5.4,1.6.45,2.45a5.74,5.74,0,0,1,0,.9c0,.35-.25.6-.25.85-.25.3-.35.75-.6,1-.1.55-.55.8-.75,1.2a1.52,1.52,0,0,0-.65.65c-.25,0-.2.3-.35.45a7,7,0,0,0-2.95,2.85,6.27,6.27,0,0,0-1.35,1.2,11.8,11.8,0,0,0-.65,1.15c-.55.85-1.1,2-1.65,3a7.36,7.36,0,0,0-.5,1.1c-.25.6-.5.9-.65,1.4,1.15,0,2.2-.2,3.35-.3,1.65.15,3-.65,4.65-.7.2-.15.4-.05.65-.1a33,33,0,0,1,4.45,0c.25-.1.4-.45.55-.7s.4-.55.55-.8a5.46,5.46,0,0,1,.5-1c.3-.6.45-.75.55-1,.6-1.1,1.05-1.75,1.4-2.4.1-.2.25-.45.35-.7s.1-.6.4-.85c.25-.65.7-1.4,1-2.1a13.47,13.47,0,0,1,1-1.9c.15-.3.25-.6.4-1a5.49,5.49,0,0,0,.65-1c.25-.4.5-.8.75-1.25a4.53,4.53,0,0,1,.55-1.1,4.39,4.39,0,0,0,.35-.65c.1-.2,0-.45,0-.65a2.9,2.9,0,0,1,.5-.6c.15-.15.3-.5.6-.3a3.35,3.35,0,0,1,.7-.45c.3,0,.4.3.65.4.1.3.3.75-.05.95A1.78,1.78,0,0,1,93.74,46.47Zm-15.9,18.8a3.38,3.38,0,0,1-.7-.1c-1.35,0-2.75.2-3.8.1-1.75.25-3.55.4-5.25.7a4,4,0,0,0-1.1.3c-.1.25-.2.5-.3.8a14.58,14.58,0,0,0,1.6,1.4c.8,1,1.75,1.9,2.6,2.85a1.1,1.1,0,0,1,.55.7,6,6,0,0,1,.9,1.3c.6.05.7.6,1,1a17.88,17.88,0,0,1,1.7,2.6c.2.1.2.35.4.45.65-2,1.1-3.7,1.75-5.25,0-.45.5-.85.45-1.4.75-1.7,1.55-3.3,2.25-5a11.46,11.46,0,0,1-1.4-.35C78.29,65.27,78,65.32,77.84,65.27Z" transform="translate(-1.19 -0.53)"/><path class="cls-1" d="M103.39,67.62c0,.15,0,.3-.1.6a1.55,1.55,0,0,0-.3.65,4.21,4.21,0,0,0-.3.7,6.84,6.84,0,0,0-.1,1.45c-.1.65-.2,1.4-.25,2.1a14.24,14.24,0,0,1-.3,2.45c.25.4.2,1,.6,1.35a4.24,4.24,0,0,0,2.7-1.35,5.68,5.68,0,0,0,1.15-.75,3,3,0,0,1,.4-.4,8.63,8.63,0,0,0,1-.6,3.67,3.67,0,0,0,1.3-1.1c.6-.45.6-.8,1.35-1.15.45-.45,1-.8,1.45-1.3.3,0,.45.2.7.3a1.73,1.73,0,0,1-.3,1.55,5.2,5.2,0,0,0-.3.5,9.6,9.6,0,0,1-.7.75,1.45,1.45,0,0,1-.65.5,7.62,7.62,0,0,0-1.15.8,8.46,8.46,0,0,0-.85.55c-.85.85-1.45,1.3-2.25,2.2a2.18,2.18,0,0,0-.7.65,5.56,5.56,0,0,0-1.35,1.3c-.4.2-.85.6-1.35.85a2,2,0,0,1-.9.35,5.1,5.1,0,0,1-2-.4,1.42,1.42,0,0,0-.5-.45,8,8,0,0,1-1-2.85c-.55.35-1,.95-1.6,1.25-1.35,1.25-2.85,2.35-4.3,3.6-.15.15-.4.3-.55.25a1.65,1.65,0,0,1-1.55.35c-.6-.3-1.2-.4-1.65-.6a3.51,3.51,0,0,1-2.35-2.1,7,7,0,0,1-.4-1.55c0-.45-.3-.8-.15-1.15-.15-.2,0-.45,0-.7a6.22,6.22,0,0,1,.6-2.85,4.32,4.32,0,0,1,.35-.5,2.71,2.71,0,0,1,.3-.55,7.69,7.69,0,0,1,.65-.6c.35-.4.8-.75,1.15-1.15.2-.2.35-.55.65-.65a3.18,3.18,0,0,1,1-1c1.1-1.4,2.95-2.1,4.25-3.3a7.67,7.67,0,0,0,1-.7c.8-.75,1.8-.2,2.6,0a8.75,8.75,0,0,1,1.75,1.85c.45,0,1.1,0,1.7-.1.2,0,.4-.15.55-.15.7.2.75.5.75.75Zm-10.85,3.7a8.56,8.56,0,0,0-1,.9,9.82,9.82,0,0,0-.65,1.25c-.1.2-.3.35-.4.55a2.45,2.45,0,0,0,0,1,6.05,6.05,0,0,0,0,1,3.9,3.9,0,0,1,.15,1.1c0,.55,0,1.45.45,1.7s.8,0,1.15,0a24.9,24.9,0,0,0,5.9-6c-.15-1.7.15-3.35-.25-4.7A5.51,5.51,0,0,0,97,68,15.56,15.56,0,0,0,92.54,71.32Z" transform="translate(-1.19 -0.53)"/><path class="cls-1" d="M129.49,71a4.9,4.9,0,0,1-.85,1.15c-.3.25-.7.3-.95.6-.4.1-.6.4-1.1.35a24.64,24.64,0,0,1-4,3.3,23.91,23.91,0,0,1-3.15,2.25,3.86,3.86,0,0,1-.95.85c-.75.75-1.6,1.35-2.35,2a12.43,12.43,0,0,1-2.25.9,1.56,1.56,0,0,1-1.45.15,3.14,3.14,0,0,1-1.8.1c-.2-.05-.4-.25-.65-.35a4.13,4.13,0,0,1-1.2-.8,5.9,5.9,0,0,1-.65-.9,6.49,6.49,0,0,1-.5-2,8.2,8.2,0,0,1-.45-2.2,8.33,8.33,0,0,1,.4-1.5c.35-.9.55-1.7.9-2.4.2-.3.45-.5.65-.8s.15-.4.25-.6a20,20,0,0,0,1.6-1.9c.3-.45.7-.8,1-1.25a7.17,7.17,0,0,1,.65-.65,13.25,13.25,0,0,0,1-1.3,9.28,9.28,0,0,1,1.45-1.35,16.75,16.75,0,0,1,1.9-.9,5.7,5.7,0,0,0,1-.5c.35-.1.7-.1.95-.35.4,0,.7-.25,1.05-.35s.6.1.8-.1c.2.15.45.1.6.2a1,1,0,0,1,.6.65,4,4,0,0,1-1.2,2.7,3.08,3.08,0,0,1-1.2,1.2,18.21,18.21,0,0,1-2.3,0c-.15.2-.45.25-.35.5A16,16,0,0,0,112,74.42c-.25,1-.7,1.4-.7,2a3.49,3.49,0,0,0,2.35,2.55,4.3,4.3,0,0,0,2.5-1c1-.6,1.8-1.1,2.75-1.7a7,7,0,0,0,.8-.5c.8-.55,1.5-1.1,2.2-1.65.3,0,.35-.3.7-.3a25.5,25.5,0,0,1,4-2.6c.45-.45,1-.8,1.45-1.25.4,0,.5-.35.9-.35A1.81,1.81,0,0,1,129.49,71Z" transform="translate(-1.19 -0.53)"/><path class="cls-1" d="M132.59,68.07c.75-.6,1.35-1.15,2.15-1.75.4-.3.75-.65,1.1-.9s.65-.35.95-.55a11.44,11.44,0,0,1,1.15-.5c.2-.05.45-.3.7-.3.45,0,.85.35,1.2.5a6.16,6.16,0,0,1,1.6,1,12.28,12.28,0,0,1,1.1,1.8,4.86,4.86,0,0,1,.05.9c.1,1,.75,1.8.15,2.8a27.51,27.51,0,0,1-3,1.4,10.68,10.68,0,0,1-1.6,1c-.55.7-1.35,1-1.9,1.65a5.52,5.52,0,0,0,1.15,1.9,2.29,2.29,0,0,0,.85.7,5.44,5.44,0,0,0,1.55.15,7.59,7.59,0,0,0,1.4-.45c.9-.05,1.2-.8,1.75-1.2a5.77,5.77,0,0,0,.95-.7,1.27,1.27,0,0,1,.45-.65,3.63,3.63,0,0,1,1.15-.9c.45-.6,1.3-.55,1.85-1a2.81,2.81,0,0,1,.65-.5c.45-.3.85-.7,1.3-1s.75-.3,1-.65a1.75,1.75,0,0,1,.65-.25c.25.4.4.55.4.75s-.35.3-.4.6a13,13,0,0,0-2.15,1.55,3.77,3.77,0,0,1-.3.65c-.9.65-1.65,1.5-2.55,2.2-.3.2-.6.5-.95.7a21.15,21.15,0,0,1-3.05,2.55,3.49,3.49,0,0,1-1,.55,6.52,6.52,0,0,1-1.25.5,7.94,7.94,0,0,1-2,.9c-.4.1-.7-.1-1.2,0a2.89,2.89,0,0,0-.7-.25,5,5,0,0,0-.8-1.2,3.55,3.55,0,0,0-.75-1.45c-.3-.5-.3-1.15-.65-1.7,0-.3-.2-.45-.15-.7a3.43,3.43,0,0,1-.9-1c0-.6,0-.75.1-.85.35-.4.9-.65,1.25-1a1.68,1.68,0,0,0,.8-.5,15.73,15.73,0,0,1,2.35-1.5c.6-.35.7-1.25.8-2a1.59,1.59,0,0,0-.65-.55c-.15-.15-.25-.45-.5-.45a6.45,6.45,0,0,0-.8.45c-1,.6-2.25,1.05-3.25,1.7-.5.25-1.15.55-1.5.75-.55.5-.55.55-.65.8-.2.55-.55,1-.8,1.55a1.66,1.66,0,0,1-.3.5,8.4,8.4,0,0,1-.8,1.5,25.4,25.4,0,0,1-.85,2.55c-.2.8-.4,1.55-1.15,1.7-.3.5-.2.7-.55,1.2a3.2,3.2,0,0,0-.8.3c-.15,0-1.2.85-1.3.85-.45.1-.6-.15-.85,0-.3-.4-.35-.6-.5-.7a3.33,3.33,0,0,1,.45-1.3,7.82,7.82,0,0,0,.7-1c.1-.25,0-.5.15-.75a6.62,6.62,0,0,1,.6-1c.2-.65.55-1.25.8-1.9a14.49,14.49,0,0,1,.6-2.1,9,9,0,0,0,.8-2.3c0-.35.2-.45.35-.8a11.44,11.44,0,0,1,.5-1.15,6.62,6.62,0,0,0,.4-.7,4.65,4.65,0,0,1,.25-.5c.15-.35.35-.65.5-1a2.48,2.48,0,0,0,.2-.65,1.18,1.18,0,0,0,.25-.5,8,8,0,0,1,.6-2.05,4.84,4.84,0,0,1,.7-1.8c.2-.5.45-1,.65-1.6a8.15,8.15,0,0,0,.55-1.55c.4-.85.7-1.4,1-2a18,18,0,0,1,1-2c.2-.45.25-.9.45-1.3a7.65,7.65,0,0,0,.8-1.55,13.26,13.26,0,0,1,2.6-4.35,5.24,5.24,0,0,0,1-1.1c.5-.45,1-.8,1.5-1.25a10.16,10.16,0,0,1,1,.3,4,4,0,0,1,.4,2.1c0,.45-.25.9-.25,1.35-.05.25,0,.45-.15.6a9.39,9.39,0,0,1-.7,1.9c-.95,2.25-2.1,3.7-3.1,5.7a13.45,13.45,0,0,0-1.1,2.25,9.62,9.62,0,0,1-1.45,2.25,16.51,16.51,0,0,1-1.15,2.05,3.86,3.86,0,0,1-.6,1.2,5.18,5.18,0,0,0-.65,1.4c-.3.8-.75,1.75-1,2.5A9,9,0,0,0,132.59,68.07Z" transform="translate(-1.19 -0.53)"/><path class="cls-1" d="M152.74,73.62c.1.25-.2.85-.35,1.15.05.25.15.4.05.65.4.25.45.75.75,1.2a6.22,6.22,0,0,0,1.05.95c.3-.2.5-.15.75-.25a4.6,4.6,0,0,0,.7-1.4,5.05,5.05,0,0,0,.15-.85,14.06,14.06,0,0,0-1-2.65,10.28,10.28,0,0,1-.1-1.75,3.45,3.45,0,0,0-.35-.75c-.1-.5.05-1.25-.3-1.7-.55.55-2.6,3.25-3.1,3.8-.35.45-.75.8-1,1.25-.55.6-2.7,3.35-3.1,4-.25.45-2.6,3.55-2.85,4a2.38,2.38,0,0,1-1.85,1.2c-.15-.15-.2-1.3-.4-1.5.2-.4.2-.8.6-1.15.3-.9,3-4.4,3.5-5.25.6-.5,2.45-3.2,3-3.8.45-1.25,2.95-4.3,3.75-5.5.3-.45.5-.85.75-1.3a1.56,1.56,0,0,0,.35-.45c.1-.45-.3-.6-.25-1.05.5-.95,1.2-1.2,1.7-1.85a5.36,5.36,0,0,0,1-.65,1.44,1.44,0,0,1,1.8.25,2.62,2.62,0,0,1-.1.85c-.1.6-.25,1-.4,1.65s-.4,1.35.15,2a2.64,2.64,0,0,0,.2,1.2,19.68,19.68,0,0,0,1.55,5.9,3.26,3.26,0,0,0,.25,1c.2,2-.6,4.15-1.1,6.1a7.36,7.36,0,0,0-.5,1.1,2.49,2.49,0,0,1-.5,1c-.35.55-.45,1.25-1.2,1.65-.45.15-.9-.1-1.3,0a6.22,6.22,0,0,1-.8.2c-.85.1-1.3-.35-2-.45,0-.2-.3-.25-.4-.4-.25-.85-.55-1.3-.7-1.85a16.72,16.72,0,0,0-.35-2.1,1.35,1.35,0,0,1-.15-.8c0-.9-.35-2,.5-2.65.3-.25.4-.8.8-1a1,1,0,0,1,.65,0Z" transform="translate(-1.19 -0.53)"/><path class="cls-1" d="M34,15.08a48.37,48.37,0,0,0,6.45-2.45c.1-.63.38-.7.83-.7a2.34,2.34,0,0,1,.47.05,3.88,3.88,0,0,0,.5-1.25.7.7,0,0,0-.3-.58,35.94,35.94,0,0,0-5.87.78.36.36,0,0,0-.15.27,1.34,1.34,0,0,0,1.15.93,1.52,1.52,0,0,0,.92-.38l.13.1c-.33.85-1.28,2.25-2,2.25S34.49,12.68,34.49,12a2.32,2.32,0,0,1,.13-.7c-3.13.73-6.35,1.63-7,1.73a6.16,6.16,0,0,1-.92.07c-1.13,0-1.35-.57-1.35-.65s.12-.27.35-.47a3.28,3.28,0,0,0,.8-.95l.2,0a1.46,1.46,0,0,0,0,.35c0,.27.08.42.3.42a1.44,1.44,0,0,0,.53-.15,4.77,4.77,0,0,1,2.3-.7c2.27-.07,6.22-.65,8.32-.85a6.27,6.27,0,0,1-1.82-2.75c-.23-1-.4-2-.53-2.47s-.25-.53-.52-.53a.91.91,0,0,0-.43.13l-.15-.15c.43-.7.5-1.05.9-1.05s2.75.85,3.28,1c.27.1.52.1.52.78a34.41,34.41,0,0,1-.45,3.47A4.08,4.08,0,0,0,38.72,10l0,0,.6-.07A10.72,10.72,0,0,0,42,5.65a21.09,21.09,0,0,0,.82-3.82.45.45,0,0,0-.47-.5,1.2,1.2,0,0,0-.65.23l-.15-.15c.45-.6.67-.88,1-.88a1.26,1.26,0,0,1,.52.15c1.47.43,1.57.45,1.57.83a20.91,20.91,0,0,1-1.4,3.84,11.77,11.77,0,0,1-3.42,4.53l1.75-.28a.86.86,0,0,1,.55-.25,3.79,3.79,0,0,1,.58.08l.77-.15c1.2-.6,4.25-3.88,4.25-4.38,0-.17-.13-.25-.3-.25a2.11,2.11,0,0,0-.4.1L47,4.6c.33-1,.55-1.27.75-1.27A8.83,8.83,0,0,1,49,4a3.72,3.72,0,0,0,1.58.28c.47,0,.6,0,.6.29s-.08.45-.55,1A53.09,53.09,0,0,1,45,9l2.05-.38a54.65,54.65,0,0,1,6.68-1c.62,0,1.2,0,1.2.93,0,.5-.33.52-.83.72a8.46,8.46,0,0,1-2.82.48c-.63,0-3.25.05-6.13.17.35.15.55.33.55.5s-.12.28-.37.4c-.58.25-1.45.75-2.32,1.23.69,0,1.62.05,1.92.1s.5.17.5.4c0,.65-1.2.82-1.95.85l-1.05.15-.22,1a4.44,4.44,0,0,1,1.69-.45c.45,0,.85,0,.85.43,0,.82-1,1.12-1.47,1.25-.27.07-.83.27-1.52.52-.1.35-.18.75-.28,1.2a2.57,2.57,0,0,0,1.25-.17c.75-.23,1.6-.75,2.07-.93a1.72,1.72,0,0,1,.58-.12c.22,0,1.37.2,1.37.8a1.31,1.31,0,0,1-.17.6c-.33.6-.9.65-1.93.87-.62.15-2.14.65-3.49,1.13a22.7,22.7,0,0,0-.23,2.72c0,.83.33,4.7.33,5.25,0,1.52-1,2.1-1.28,2.1s-.4-.15-.5-.48c-.15-.52-.17-.85-.6-1.17a6.21,6.21,0,0,1-1-1.13l.15-.15a4.07,4.07,0,0,0,1.83.7c.37,0,.57-.12.57-1.55s-.2-3-.2-3.64c0-.3,0-1.25.08-2.35L39,20.45a15.73,15.73,0,0,1-5,.75l0-.2c2.2-.25,3.78-1.1,6.3-2.52l.1-1.63c-1.17.48-2.42,1-3.17,1.4l-.13-.15c.3-.25.48-.42.48-.55s-.1-.12-.3-.12-2,.27-2.38.32l0-.22a27.92,27.92,0,0,0,3.43-1.08c.47-.2.75-.9,1.5-1.12l.72-.23,0-.45c0-.32-.13-.27-.38-.32a.26.26,0,0,1-.22-.25l-.85.2c-1.23.32-3.68.82-5.08,1ZM32.77,6.93A1,1,0,0,0,31.94,8c0,.45.3,1,.65,1a12.66,12.66,0,0,0,2.08-.93l.12.18A16.94,16.94,0,0,0,33,9.85c-.25.28-.75.85-1.32.85-.8,0-1.48-1.22-1.48-2.17,0-.53.28-1.95,1.08-1.95h.07c.35,0,.73.07,1.43.12Zm5.37,19A14.06,14.06,0,0,0,35,27.77a1.29,1.29,0,0,1-1,.53,3,3,0,0,1-2.32-2.53,1.93,1.93,0,0,1,.07-.5c.08-.42.55-.72.93-1.09l.2.07a1.8,1.8,0,0,0,0,.38,2.16,2.16,0,0,0,1.83,2.07A15.2,15.2,0,0,0,38,25.75Zm8,.55a2.08,2.08,0,0,0,1.3-1.8c0-.94-1.35-1.32-2.35-1.12l0-.2a6.2,6.2,0,0,1,1.72-.4c.25,0,2.45.2,2.55.2.58.08,1,.28,1,1a1.51,1.51,0,0,1-1,1.6c-.57.27-2.2.62-3.07.9Z" transform="translate(-1.19 -0.53)"/><path class="cls-1" d="M64.64,16.3c1.45-.4,3.15-1,4.08-2.52-4.58,1.27-9.73,4.35-10.8,4.9a8.3,8.3,0,0,1-3.13.92.61.61,0,0,1-.7-.65c0-.05.43-2.8,1.73-2.8l1,.05a8.69,8.69,0,0,0,1.4-.15c1.07-.2,5.57-1.9,8.8-2.8.67-.17,1.42-.37,2.22-.55a11.8,11.8,0,0,0,.55-2.1,22.82,22.82,0,0,1-3,.3,13.88,13.88,0,0,1-3.25-.47l0-.2A4.83,4.83,0,0,0,66,9.78c.58-.23,3.4-1.28,4-1.53a1.2,1.2,0,0,0-.44-1A1.62,1.62,0,0,1,69,5.93c0-.5.68-.93,1.07-.93a6.1,6.1,0,0,1,1.9.58c.23.1.53.22.53.65a3.93,3.93,0,0,1-.3,1.1,7.39,7.39,0,0,1,2.5-.9c.65,0,1.85.85,1.85,1.32a.9.9,0,0,1-.13.38c-.67,1.27-1.27,1.55-5.25,2.22-.22.7-.47,1.4-.67,2.05,2-.42,4.3-.8,6.62-1.05C79.24,8.23,81.66,4.28,81.66,3a.21.21,0,0,0-.2-.23.75.75,0,0,0-.52.3l-.18-.1c.08-.8,0-1.07.48-1.27a.57.57,0,0,1,.35-.1c.4,0,2,1,2,1.77a2.82,2.82,0,0,1-.35,1.07c-.38.75-2.45,3.78-4.58,6.8,1.28-.1,2.63-.15,3.45-.22.4,0,.58-.1.58-.25a.88.88,0,0,0-.18-.35L81.34,8.73l.17-.13c1.95,1.75,2.78,2.08,4.43,2.25.65.08,1.27.08,1.27.4s-.15.8-1.67.9c-.35,0-3,0-5.53.15-.72,0-1.47.08-2.22.13-1.43,2-2.75,3.87-3.48,4.95a2.71,2.71,0,0,1,.13.85,1.54,1.54,0,0,1,0,.37c-.07.63-.1,2-.1,3.38s0,3,.08,3.44c0,.18,0,.33,0,.45A1.7,1.7,0,0,1,74.06,27c-.32.48-.5.65-1.3.65-.35,0-1.6-.17-1.6-1.35A21.26,21.26,0,0,1,71.81,23c.13-.52,1-3.07,1.2-3.65-1.7,2.5-4,6-4.89,7.1-1.58,2-2.78,2.6-3.75,2.6-.58,0-1-.38-1-.65a1.31,1.31,0,0,1,.42-.75A5.71,5.71,0,0,0,65,25.72l.2.05c0,.35,0,.78.47.78,1,0,6.5-7.82,7.67-9.57a5,5,0,0,0-.17-1.1l.15-.1.45.57,2.55-3.8a54.39,54.39,0,0,0-6.15.88c-.75,2.25-1,2.47-2,2.7-.77.17-2.8.3-3.45.37Zm10.8,2.6a7.44,7.44,0,0,0,1.5.23,4.22,4.22,0,0,0,1.57-.35A1.42,1.42,0,0,1,79,18.7c.35,0,.55.18.55.6,0,.83-.55.93-1.3.93-1,0-1.57-.35-2.82-1.15Zm.15,2.78a3.82,3.82,0,0,0,1.27.2,4.51,4.51,0,0,0,1.53-.25.88.88,0,0,1,.42-.1c.45,0,.68.55.68.82,0,.48-.68.8-1.13.8a9.11,9.11,0,0,1-2.82-1.27ZM78,23.73a9.82,9.82,0,0,0,2,.42,1.46,1.46,0,0,0,1.32-.77,11.39,11.39,0,0,0,.63-3.7c0-2.18-.5-2.88-1.35-3a4.77,4.77,0,0,1-1.73-.53,4.16,4.16,0,0,0-2.37-.5l-.1-.12a1.25,1.25,0,0,1,.8-.28c.47,0,2.85.1,3.4.1l1.2,0a1.64,1.64,0,0,1,1.75,1.55c0,.55-.88,3.2-1,3.83s-.53,2.42-.65,2.75c-.33.77-.85,1.7-1.63,1.7a1,1,0,0,1-.5-.15L77.94,23.9Z" transform="translate(-1.19 -0.53)"/><path class="cls-1" d="M94.52,20a12.79,12.79,0,0,1-1.35,3.3c-1,1.7-1.63,2.75-2.65,2.75a1.51,1.51,0,0,1-1.38-1.42,1.24,1.24,0,0,1,.5-.95A17.43,17.43,0,0,0,94.12,18a3.16,3.16,0,0,0-1.63-1.35,15.51,15.51,0,0,0-3.17-1l0-.22a27.53,27.53,0,0,1,3.25.37,5.42,5.42,0,0,0,.65.05c.28,0,1.53-.2,1.8-.22a20.94,20.94,0,0,0,1.08-3.8c0-.13-.05-.63-.05-.75a3.94,3.94,0,0,0-.88.15c-1.12.35-4.25,2.32-5.1,2.62a3.55,3.55,0,0,1-1.15.3.81.81,0,0,1-.6-.25,4.57,4.57,0,0,1-1.2-1.9c0-.4.45-.4.75-.4a2,2,0,0,0,.73-.12l.1.15a.63.63,0,0,0-.13.35c0,.17.1.32.4.32a30.71,30.71,0,0,0,5.25-1.57,14.91,14.91,0,0,1,2.48-1A25,25,0,0,1,99.54,9c.58,0,1.25.47,1.25.92,0,.23-.15.45-.47.7a2.51,2.51,0,0,1-1.75.4l-1.93,0a1.23,1.23,0,0,1,.43.75,1.68,1.68,0,0,1-.15.55,31.21,31.21,0,0,0-1.3,3.27,3.55,3.55,0,0,1,2.37,2,10.65,10.65,0,0,1,.53,2.62,1.31,1.31,0,0,1-.8,1.33,2.66,2.66,0,0,1-.88.25,1,1,0,0,1-.82-.48,21,21,0,0,1-1.25-2.2ZM92.29,5.18a3,3,0,0,0,1.18.2c.37,0,2.12-.1,2.52-.1a1.48,1.48,0,0,1,1.53,1.45c0,.6-.35.82-1.25,1.27a3.66,3.66,0,0,1-1.63.48c-1.6,0-2.2-1.95-2.47-3.18Zm15.82,6.87c0-.27-.07-.35-.25-.35s-.12,0-.22,0c-1.08.12-6.37.7-7.57.9l0-.2c2-1,6.47-3.5,7.27-3.83s1-.92,1.27-1.45c.2-.35.38-.52.65-.52a1.38,1.38,0,0,1,.55.15,3.66,3.66,0,0,0,1.65.67l.38,0c.9,0,1.32,1.25,1.32,1.57s-.52,2.35-2.1,2.4c-.32,0-.75,0-1.2,0-.65,0-1,.07-1,3.1a30.55,30.55,0,0,0,.42,4.7,11.34,11.34,0,0,1,.23,1.72c0,2-1.68,4.55-2.48,4.55-.5,0-1.07-.65-1.82-1.5s-1.25-1.75-1.48-2.05l.13-.15a5.35,5.35,0,0,0,2.4,1.13c1,0,2-1.33,2.22-1.78a3,3,0,0,0,.2-1.17,3.12,3.12,0,0,0,0-.68,19.14,19.14,0,0,1-.57-4.75c0-.72.05-1.47.12-2.3Zm-6.19,6A4.5,4.5,0,0,1,103.71,16a2.24,2.24,0,0,1,1-.35c.7,0,2.6,1.15,2.6,2.25,0,.23-.28,1.4-1.25,1.4a1.92,1.92,0,0,1-1-.35c-1.57-1.15-1.77-1.27-2.1-1.27a1.38,1.38,0,0,0-1,.5Z" transform="translate(-1.19 -0.53)"/><path class="cls-1" d="M119.67,3.23c-.3.33-.83.92-.83,1.35a1.55,1.55,0,0,0,.25.7,1.5,1.5,0,0,1,.25.87A3.3,3.3,0,0,1,119,7.53a6.55,6.55,0,0,0,1.37-.33,2,2,0,0,1,.78-.25c1,0,1.1.3,1.17.63a2.82,2.82,0,0,1,.1.55,1.42,1.42,0,0,1-.3.77,18,18,0,0,0-1,2.23c-.1.25-.2.35-.3.35s-.2-.13-.25-.28-.45-1.32-.45-1.37a.55.55,0,0,1,.12-.3,1.07,1.07,0,0,0,.3-.68c0-.22-.85-.25-1.12-.25a3.31,3.31,0,0,0-1,.13c-.58,1.2-.8,1.67-2.08,1.67a1.07,1.07,0,0,1-1.12-.75,1.63,1.63,0,0,1-.3-.87c0-.68.47-1.6,1.3-3.28a3.18,3.18,0,0,1,1-1.19c.48-.33,1.8-.93,2.33-1.23Zm-1.8,10c1-.25,5-1.33,6.4-1.7a3.52,3.52,0,0,0-.25-.93c-.15-.32-.5-.67-.5-1s.7-.6,1.62-.88a1.47,1.47,0,0,1,.48-.07,1.79,1.79,0,0,1,.6.1c.4.12.6.27.6.6a1.45,1.45,0,0,1-.13.55c-.1.22-.22.57-.37,1,.92-.27,1.7-.55,2.14-.67a6,6,0,0,1,1.33-.3.87.87,0,0,1,.87.62,17.2,17.2,0,0,0,1.65-.87,1.13,1.13,0,0,0,.53-.8,18.73,18.73,0,0,0,.35-2.1c0-.3-.1-.65-.48-.65,0,0-.65,0-1.75.22-2.15.33-2.32.4-2.75.7a7,7,0,0,1-1.62.85.18.18,0,0,1-.2-.2c0-.22.15-.47,1.48-2.87a2.19,2.19,0,0,0,.27-.92,1.22,1.22,0,0,0-.1-.48,1.39,1.39,0,0,1-.15-.42c0-.2,1-.6,1.22-.6.65,0,1.95.72,1.95,1,0,.13-.12.28-.42.5l-1.2.87a3.2,3.2,0,0,0-.68,1.1c0,.1.1.15.48.18S130.64,6,131,6a2.43,2.43,0,0,0,1.38-.5,1.25,1.25,0,0,1,.77-.47c.13,0,2.23.65,2.23,1s-.33.42-.88.72a.77.77,0,0,0-.47.58,5.68,5.68,0,0,0-.38,2.07c0,.3-.25,1.65-1,1.65-.27,0-1.62-.22-1.92-.25a1.89,1.89,0,0,1-.58,1.33c-.37.47-.8,1-4.54,1.07a23.6,23.6,0,0,0-.5,2.58,23.66,23.66,0,0,0,3.52-.7c.37-.18.6-.43,1.05-.43a2.67,2.67,0,0,1,.35,0c.72.15,2.77,0,3.15.23a.44.44,0,0,1,.25.42,7.31,7.31,0,0,1-1.5,2.65c-.13.13-2.15,1.9-3.05,1.9a1.22,1.22,0,0,1-.75-.32,6.3,6.3,0,0,0-1.7-1.13l.08-.2a5.88,5.88,0,0,0,1.54.25,1.7,1.7,0,0,0,1-.25,4.25,4.25,0,0,0,.93-2.17.35.35,0,0,0-.4-.38,1.91,1.91,0,0,0-.65.15,12.44,12.44,0,0,1-3.9.75c-.05.93-.1,2.15-.1,3.43.13,0,.38.52.38.82a1.56,1.56,0,0,1-.35.73c0,.37,0,.75,0,1.12a11,11,0,0,1,2.57-.3,7.77,7.77,0,0,1,3,.5c.65.25,1.42.63,2,.83a1.81,1.81,0,0,1,1.23.92,2.25,2.25,0,0,1,.45,1c0,.62-1.38.77-1.55.77a1.68,1.68,0,0,1-.95-.35l-2-1.29A7,7,0,0,0,125,23.2a20,20,0,0,0,.63,5.62,1.31,1.31,0,0,1,.1.5,1.1,1.1,0,0,1-1,1,.57.57,0,0,1-.55-.47c-.38-1.35,0-1.9-1.05-3.38l.2-.1c.2.18.32.3.4.3s.12-.1.15-.35l.2-3.92a3.79,3.79,0,0,0-.65.53c-3.13,2.92-3.48,3.24-4.25,3.67a8.83,8.83,0,0,1-2.45.82c-.2,0-.28-.1-.28-.22a1,1,0,0,1,0-.2c.5-1.28.73-1.65,1.35-1.85.38-.13.83-.2,1.15-.35a26.69,26.69,0,0,0,5.13-3.8l.2-4.37a8,8,0,0,0-2.53.22c-.4.2-.57.33-.57.6a1.33,1.33,0,0,0,0,.3,10.2,10.2,0,0,1,.42,1.78c0,1.27-1,2.92-2.32,2.92-.93,0-2.78-2.17-2.78-3.17a2.4,2.4,0,0,1,.2-.93c.38-.87.65-2.35.85-2.8a7.21,7.21,0,0,1,1.55-1.7l.15.15a1.28,1.28,0,0,0-.3.78,2.25,2.25,0,0,0,1.58,1.8,2.15,2.15,0,0,0,.62-.13,15.36,15.36,0,0,1,3.1-.55c0-.87,0-2.05,0-2.67l-1.3,0c-.3,0-1.7-.1-2-.1-1,0-2,.2-3.12.28Z" transform="translate(-1.19 -0.53)"/></svg>